<svg xmlns="http://www.w3.org/2000/svg" viewBox="0 0 800 268" width="800" height="268" role="img" aria-label="Observation pairs at the left wall. In FROZEN both left and press leave the observation identical. In SLOT, press changes the TV bits.">
  <style>
    .surface { fill: #fcfcfb; }
    .ink     { fill: #0b0b0b; }
    .ink2    { fill: #52514e; }
    .rule    { stroke: #d9d8d4; }
    .cell    { fill: #eceae5; }
    .cellhot { fill: #52514e; }
    .bit0    { fill: #e4e2dc; }
    .bit1    { fill: #52514e; }
    .s1      { fill: #2a78d6; }
    .s2      { fill: #eb6834; }
    .s1s     { stroke: #2a78d6; }
    .s2s     { stroke: #eb6834; }
    .arrow   { stroke: #8a8985; fill: none; }
    text { font-family: ui-sans-serif, -apple-system, "Segoe UI", Helvetica, sans-serif; }
    @media (prefers-color-scheme: dark) {
      .surface { fill: #1a1a19; }
      .ink     { fill: #ffffff; }
      .ink2    { fill: #c3c2b7; }
      .rule    { stroke: #3a3a37; }
      .cell    { fill: #2e2e2b; }
      .cellhot { fill: #c3c2b7; }
      .bit0    { fill: #2e2e2b; }
      .bit1    { fill: #c3c2b7; }
      .s1      { fill: #3987e5; }
      .s2      { fill: #d95926; }
      .s1s     { stroke: #3987e5; }
      .s2s     { stroke: #d95926; }
      .arrow   { stroke: #7a7975; }
    }
  </style>

  <rect class="surface" x="0" y="0" width="800" height="268"/>
  <text class="ink2" x="24" y="26" font-size="12" font-weight="600" letter-spacing="0.06em">AT THE LEFT WALL, p=0</text>
  <text class="ink" x="24" y="64" font-size="13" font-weight="600">FROZEN</text>
  <text class="ink2" x="132" y="64" font-size="12" text-anchor="end">left</text>
  <rect class="cellhot" x="146" y="52" width="9" height="15" rx="1.5"/>
    <rect class="cell" x="156" y="52" width="9" height="15" rx="1.5"/>
    <rect class="cell" x="166" y="52" width="9" height="15" rx="1.5"/>
    <rect class="cell" x="176" y="52" width="9" height="15" rx="1.5"/>
    <rect class="cell" x="186" y="52" width="9" height="15" rx="1.5"/>
    <rect class="cell" x="196" y="52" width="9" height="15" rx="1.5"/>
    <rect class="cell" x="206" y="52" width="9" height="15" rx="1.5"/>
    <rect class="cell" x="216" y="52" width="9" height="15" rx="1.5"/>
    <rect class="bit1" x="235" y="52" width="4" height="15" rx="1"/>
    <rect class="bit0" x="240" y="52" width="4" height="15" rx="1"/>
    <rect class="bit1" x="245" y="52" width="4" height="15" rx="1"/>
    <rect class="bit0" x="250" y="52" width="4" height="15" rx="1"/>
    <rect class="bit0" x="255" y="52" width="4" height="15" rx="1"/>
    <rect class="bit0" x="260" y="52" width="4" height="15" rx="1"/>
    <rect class="bit1" x="265" y="52" width="4" height="15" rx="1"/>
    <rect class="bit0" x="270" y="52" width="4" height="15" rx="1"/>
    <rect class="bit0" x="275" y="52" width="4" height="15" rx="1"/>
    <rect class="bit0" x="280" y="52" width="4" height="15" rx="1"/>
    <rect class="bit0" x="285" y="52" width="4" height="15" rx="1"/>
    <rect class="bit1" x="290" y="52" width="4" height="15" rx="1"/>
    <rect class="bit1" x="295" y="52" width="4" height="15" rx="1"/>
    <rect class="bit0" x="300" y="52" width="4" height="15" rx="1"/>
    <rect class="bit0" x="305" y="52" width="4" height="15" rx="1"/>
    <rect class="bit0" x="310" y="52" width="4" height="15" rx="1"/>
    <rect class="bit1" x="315" y="52" width="4" height="15" rx="1"/>
    <rect class="bit0" x="320" y="52" width="4" height="15" rx="1"/>
    <rect class="bit0" x="325" y="52" width="4" height="15" rx="1"/>
    <rect class="bit0" x="330" y="52" width="4" height="15" rx="1"/>
    <rect class="bit0" x="335" y="52" width="4" height="15" rx="1"/>
    <rect class="bit1" x="340" y="52" width="4" height="15" rx="1"/>
    <rect class="bit0" x="345" y="52" width="4" height="15" rx="1"/>
    <rect class="bit0" x="350" y="52" width="4" height="15" rx="1"/>
    <rect class="bit0" x="355" y="52" width="4" height="15" rx="1"/>
    <rect class="bit0" x="360" y="52" width="4" height="15" rx="1"/>
    <rect class="bit1" x="365" y="52" width="4" height="15" rx="1"/>
    <rect class="bit1" x="370" y="52" width="4" height="15" rx="1"/>
    <rect class="bit0" x="375" y="52" width="4" height="15" rx="1"/>
    <rect class="bit0" x="380" y="52" width="4" height="15" rx="1"/>
    <rect class="bit1" x="385" y="52" width="4" height="15" rx="1"/>
    <rect class="bit0" x="390" y="52" width="4" height="15" rx="1"/>
  <path class="arrow" d="M409 59.5 h22" stroke-width="1.5"/>
  <path class="arrow" d="M426 55.5 l4 4 l-4 4" stroke-width="1.5"/>
  <rect class="cellhot" x="445" y="52" width="9" height="15" rx="1.5"/>
    <rect class="cell" x="455" y="52" width="9" height="15" rx="1.5"/>
    <rect class="cell" x="465" y="52" width="9" height="15" rx="1.5"/>
    <rect class="cell" x="475" y="52" width="9" height="15" rx="1.5"/>
    <rect class="cell" x="485" y="52" width="9" height="15" rx="1.5"/>
    <rect class="cell" x="495" y="52" width="9" height="15" rx="1.5"/>
    <rect class="cell" x="505" y="52" width="9" height="15" rx="1.5"/>
    <rect class="cell" x="515" y="52" width="9" height="15" rx="1.5"/>
    <rect class="bit1" x="534" y="52" width="4" height="15" rx="1"/>
    <rect class="bit0" x="539" y="52" width="4" height="15" rx="1"/>
    <rect class="bit1" x="544" y="52" width="4" height="15" rx="1"/>
    <rect class="bit0" x="549" y="52" width="4" height="15" rx="1"/>
    <rect class="bit0" x="554" y="52" width="4" height="15" rx="1"/>
    <rect class="bit0" x="559" y="52" width="4" height="15" rx="1"/>
    <rect class="bit1" x="564" y="52" width="4" height="15" rx="1"/>
    <rect class="bit0" x="569" y="52" width="4" height="15" rx="1"/>
    <rect class="bit0" x="574" y="52" width="4" height="15" rx="1"/>
    <rect class="bit0" x="579" y="52" width="4" height="15" rx="1"/>
    <rect class="bit0" x="584" y="52" width="4" height="15" rx="1"/>
    <rect class="bit1" x="589" y="52" width="4" height="15" rx="1"/>
    <rect class="bit1" x="594" y="52" width="4" height="15" rx="1"/>
    <rect class="bit0" x="599" y="52" width="4" height="15" rx="1"/>
    <rect class="bit0" x="604" y="52" width="4" height="15" rx="1"/>
    <rect class="bit0" x="609" y="52" width="4" height="15" rx="1"/>
    <rect class="bit1" x="614" y="52" width="4" height="15" rx="1"/>
    <rect class="bit0" x="619" y="52" width="4" height="15" rx="1"/>
    <rect class="bit0" x="624" y="52" width="4" height="15" rx="1"/>
    <rect class="bit0" x="629" y="52" width="4" height="15" rx="1"/>
    <rect class="bit0" x="634" y="52" width="4" height="15" rx="1"/>
    <rect class="bit1" x="639" y="52" width="4" height="15" rx="1"/>
    <rect class="bit0" x="644" y="52" width="4" height="15" rx="1"/>
    <rect class="bit0" x="649" y="52" width="4" height="15" rx="1"/>
    <rect class="bit0" x="654" y="52" width="4" height="15" rx="1"/>
    <rect class="bit0" x="659" y="52" width="4" height="15" rx="1"/>
    <rect class="bit1" x="664" y="52" width="4" height="15" rx="1"/>
    <rect class="bit1" x="669" y="52" width="4" height="15" rx="1"/>
    <rect class="bit0" x="674" y="52" width="4" height="15" rx="1"/>
    <rect class="bit0" x="679" y="52" width="4" height="15" rx="1"/>
    <rect class="bit1" x="684" y="52" width="4" height="15" rx="1"/>
    <rect class="bit0" x="689" y="52" width="4" height="15" rx="1"/>
  <text class="ink2" x="710" y="64" font-size="12" font-weight="400">identical</text>
  <text class="ink2" x="132" y="116" font-size="12" text-anchor="end">press</text>
  <rect class="cellhot" x="146" y="104" width="9" height="15" rx="1.5"/>
    <rect class="cell" x="156" y="104" width="9" height="15" rx="1.5"/>
    <rect class="cell" x="166" y="104" width="9" height="15" rx="1.5"/>
    <rect class="cell" x="176" y="104" width="9" height="15" rx="1.5"/>
    <rect class="cell" x="186" y="104" width="9" height="15" rx="1.5"/>
    <rect class="cell" x="196" y="104" width="9" height="15" rx="1.5"/>
    <rect class="cell" x="206" y="104" width="9" height="15" rx="1.5"/>
    <rect class="cell" x="216" y="104" width="9" height="15" rx="1.5"/>
    <rect class="bit1" x="235" y="104" width="4" height="15" rx="1"/>
    <rect class="bit0" x="240" y="104" width="4" height="15" rx="1"/>
    <rect class="bit1" x="245" y="104" width="4" height="15" rx="1"/>
    <rect class="bit0" x="250" y="104" width="4" height="15" rx="1"/>
    <rect class="bit0" x="255" y="104" width="4" height="15" rx="1"/>
    <rect class="bit0" x="260" y="104" width="4" height="15" rx="1"/>
    <rect class="bit1" x="265" y="104" width="4" height="15" rx="1"/>
    <rect class="bit0" x="270" y="104" width="4" height="15" rx="1"/>
    <rect class="bit0" x="275" y="104" width="4" height="15" rx="1"/>
    <rect class="bit0" x="280" y="104" width="4" height="15" rx="1"/>
    <rect class="bit0" x="285" y="104" width="4" height="15" rx="1"/>
    <rect class="bit1" x="290" y="104" width="4" height="15" rx="1"/>
    <rect class="bit1" x="295" y="104" width="4" height="15" rx="1"/>
    <rect class="bit0" x="300" y="104" width="4" height="15" rx="1"/>
    <rect class="bit0" x="305" y="104" width="4" height="15" rx="1"/>
    <rect class="bit0" x="310" y="104" width="4" height="15" rx="1"/>
    <rect class="bit1" x="315" y="104" width="4" height="15" rx="1"/>
    <rect class="bit0" x="320" y="104" width="4" height="15" rx="1"/>
    <rect class="bit0" x="325" y="104" width="4" height="15" rx="1"/>
    <rect class="bit0" x="330" y="104" width="4" height="15" rx="1"/>
    <rect class="bit0" x="335" y="104" width="4" height="15" rx="1"/>
    <rect class="bit1" x="340" y="104" width="4" height="15" rx="1"/>
    <rect class="bit0" x="345" y="104" width="4" height="15" rx="1"/>
    <rect class="bit0" x="350" y="104" width="4" height="15" rx="1"/>
    <rect class="bit0" x="355" y="104" width="4" height="15" rx="1"/>
    <rect class="bit0" x="360" y="104" width="4" height="15" rx="1"/>
    <rect class="bit1" x="365" y="104" width="4" height="15" rx="1"/>
    <rect class="bit1" x="370" y="104" width="4" height="15" rx="1"/>
    <rect class="bit0" x="375" y="104" width="4" height="15" rx="1"/>
    <rect class="bit0" x="380" y="104" width="4" height="15" rx="1"/>
    <rect class="bit1" x="385" y="104" width="4" height="15" rx="1"/>
    <rect class="bit0" x="390" y="104" width="4" height="15" rx="1"/>
  <path class="arrow" d="M409 111.5 h22" stroke-width="1.5"/>
  <path class="arrow" d="M426 107.5 l4 4 l-4 4" stroke-width="1.5"/>
  <rect class="cellhot" x="445" y="104" width="9" height="15" rx="1.5"/>
    <rect class="cell" x="455" y="104" width="9" height="15" rx="1.5"/>
    <rect class="cell" x="465" y="104" width="9" height="15" rx="1.5"/>
    <rect class="cell" x="475" y="104" width="9" height="15" rx="1.5"/>
    <rect class="cell" x="485" y="104" width="9" height="15" rx="1.5"/>
    <rect class="cell" x="495" y="104" width="9" height="15" rx="1.5"/>
    <rect class="cell" x="505" y="104" width="9" height="15" rx="1.5"/>
    <rect class="cell" x="515" y="104" width="9" height="15" rx="1.5"/>
    <rect class="bit1" x="534" y="104" width="4" height="15" rx="1"/>
    <rect class="bit0" x="539" y="104" width="4" height="15" rx="1"/>
    <rect class="bit1" x="544" y="104" width="4" height="15" rx="1"/>
    <rect class="bit0" x="549" y="104" width="4" height="15" rx="1"/>
    <rect class="bit0" x="554" y="104" width="4" height="15" rx="1"/>
    <rect class="bit0" x="559" y="104" width="4" height="15" rx="1"/>
    <rect class="bit1" x="564" y="104" width="4" height="15" rx="1"/>
    <rect class="bit0" x="569" y="104" width="4" height="15" rx="1"/>
    <rect class="bit0" x="574" y="104" width="4" height="15" rx="1"/>
    <rect class="bit0" x="579" y="104" width="4" height="15" rx="1"/>
    <rect class="bit0" x="584" y="104" width="4" height="15" rx="1"/>
    <rect class="bit1" x="589" y="104" width="4" height="15" rx="1"/>
    <rect class="bit1" x="594" y="104" width="4" height="15" rx="1"/>
    <rect class="bit0" x="599" y="104" width="4" height="15" rx="1"/>
    <rect class="bit0" x="604" y="104" width="4" height="15" rx="1"/>
    <rect class="bit0" x="609" y="104" width="4" height="15" rx="1"/>
    <rect class="bit1" x="614" y="104" width="4" height="15" rx="1"/>
    <rect class="bit0" x="619" y="104" width="4" height="15" rx="1"/>
    <rect class="bit0" x="624" y="104" width="4" height="15" rx="1"/>
    <rect class="bit0" x="629" y="104" width="4" height="15" rx="1"/>
    <rect class="bit0" x="634" y="104" width="4" height="15" rx="1"/>
    <rect class="bit1" x="639" y="104" width="4" height="15" rx="1"/>
    <rect class="bit0" x="644" y="104" width="4" height="15" rx="1"/>
    <rect class="bit0" x="649" y="104" width="4" height="15" rx="1"/>
    <rect class="bit0" x="654" y="104" width="4" height="15" rx="1"/>
    <rect class="bit0" x="659" y="104" width="4" height="15" rx="1"/>
    <rect class="bit1" x="664" y="104" width="4" height="15" rx="1"/>
    <rect class="bit1" x="669" y="104" width="4" height="15" rx="1"/>
    <rect class="bit0" x="674" y="104" width="4" height="15" rx="1"/>
    <rect class="bit0" x="679" y="104" width="4" height="15" rx="1"/>
    <rect class="bit1" x="684" y="104" width="4" height="15" rx="1"/>
    <rect class="bit0" x="689" y="104" width="4" height="15" rx="1"/>
  <text class="ink2" x="710" y="116" font-size="12" font-weight="400">identical</text>
  <text class="ink" x="24" y="168" font-size="13" font-weight="600">SLOT</text>
  <line class="rule" x1="24" y1="140" x2="776" y2="140" stroke-width="1"/>
  <text class="ink2" x="132" y="168" font-size="12" text-anchor="end">left</text>
  <rect class="cellhot" x="146" y="156" width="9" height="15" rx="1.5"/>
    <rect class="cell" x="156" y="156" width="9" height="15" rx="1.5"/>
    <rect class="cell" x="166" y="156" width="9" height="15" rx="1.5"/>
    <rect class="cell" x="176" y="156" width="9" height="15" rx="1.5"/>
    <rect class="cell" x="186" y="156" width="9" height="15" rx="1.5"/>
    <rect class="cell" x="196" y="156" width="9" height="15" rx="1.5"/>
    <rect class="cell" x="206" y="156" width="9" height="15" rx="1.5"/>
    <rect class="cell" x="216" y="156" width="9" height="15" rx="1.5"/>
    <rect class="bit1" x="235" y="156" width="4" height="15" rx="1"/>
    <rect class="bit0" x="240" y="156" width="4" height="15" rx="1"/>
    <rect class="bit1" x="245" y="156" width="4" height="15" rx="1"/>
    <rect class="bit0" x="250" y="156" width="4" height="15" rx="1"/>
    <rect class="bit0" x="255" y="156" width="4" height="15" rx="1"/>
    <rect class="bit0" x="260" y="156" width="4" height="15" rx="1"/>
    <rect class="bit1" x="265" y="156" width="4" height="15" rx="1"/>
    <rect class="bit0" x="270" y="156" width="4" height="15" rx="1"/>
    <rect class="bit0" x="275" y="156" width="4" height="15" rx="1"/>
    <rect class="bit0" x="280" y="156" width="4" height="15" rx="1"/>
    <rect class="bit0" x="285" y="156" width="4" height="15" rx="1"/>
    <rect class="bit1" x="290" y="156" width="4" height="15" rx="1"/>
    <rect class="bit1" x="295" y="156" width="4" height="15" rx="1"/>
    <rect class="bit0" x="300" y="156" width="4" height="15" rx="1"/>
    <rect class="bit0" x="305" y="156" width="4" height="15" rx="1"/>
    <rect class="bit0" x="310" y="156" width="4" height="15" rx="1"/>
    <rect class="bit1" x="315" y="156" width="4" height="15" rx="1"/>
    <rect class="bit0" x="320" y="156" width="4" height="15" rx="1"/>
    <rect class="bit0" x="325" y="156" width="4" height="15" rx="1"/>
    <rect class="bit0" x="330" y="156" width="4" height="15" rx="1"/>
    <rect class="bit0" x="335" y="156" width="4" height="15" rx="1"/>
    <rect class="bit1" x="340" y="156" width="4" height="15" rx="1"/>
    <rect class="bit0" x="345" y="156" width="4" height="15" rx="1"/>
    <rect class="bit0" x="350" y="156" width="4" height="15" rx="1"/>
    <rect class="bit0" x="355" y="156" width="4" height="15" rx="1"/>
    <rect class="bit0" x="360" y="156" width="4" height="15" rx="1"/>
    <rect class="bit1" x="365" y="156" width="4" height="15" rx="1"/>
    <rect class="bit1" x="370" y="156" width="4" height="15" rx="1"/>
    <rect class="bit0" x="375" y="156" width="4" height="15" rx="1"/>
    <rect class="bit0" x="380" y="156" width="4" height="15" rx="1"/>
    <rect class="bit1" x="385" y="156" width="4" height="15" rx="1"/>
    <rect class="bit0" x="390" y="156" width="4" height="15" rx="1"/>
  <path class="arrow" d="M409 163.5 h22" stroke-width="1.5"/>
  <path class="arrow" d="M426 159.5 l4 4 l-4 4" stroke-width="1.5"/>
  <rect class="cellhot" x="445" y="156" width="9" height="15" rx="1.5"/>
    <rect class="cell" x="455" y="156" width="9" height="15" rx="1.5"/>
    <rect class="cell" x="465" y="156" width="9" height="15" rx="1.5"/>
    <rect class="cell" x="475" y="156" width="9" height="15" rx="1.5"/>
    <rect class="cell" x="485" y="156" width="9" height="15" rx="1.5"/>
    <rect class="cell" x="495" y="156" width="9" height="15" rx="1.5"/>
    <rect class="cell" x="505" y="156" width="9" height="15" rx="1.5"/>
    <rect class="cell" x="515" y="156" width="9" height="15" rx="1.5"/>
    <rect class="bit1" x="534" y="156" width="4" height="15" rx="1"/>
    <rect class="bit0" x="539" y="156" width="4" height="15" rx="1"/>
    <rect class="bit1" x="544" y="156" width="4" height="15" rx="1"/>
    <rect class="bit0" x="549" y="156" width="4" height="15" rx="1"/>
    <rect class="bit0" x="554" y="156" width="4" height="15" rx="1"/>
    <rect class="bit0" x="559" y="156" width="4" height="15" rx="1"/>
    <rect class="bit1" x="564" y="156" width="4" height="15" rx="1"/>
    <rect class="bit0" x="569" y="156" width="4" height="15" rx="1"/>
    <rect class="bit0" x="574" y="156" width="4" height="15" rx="1"/>
    <rect class="bit0" x="579" y="156" width="4" height="15" rx="1"/>
    <rect class="bit0" x="584" y="156" width="4" height="15" rx="1"/>
    <rect class="bit1" x="589" y="156" width="4" height="15" rx="1"/>
    <rect class="bit1" x="594" y="156" width="4" height="15" rx="1"/>
    <rect class="bit0" x="599" y="156" width="4" height="15" rx="1"/>
    <rect class="bit0" x="604" y="156" width="4" height="15" rx="1"/>
    <rect class="bit0" x="609" y="156" width="4" height="15" rx="1"/>
    <rect class="bit1" x="614" y="156" width="4" height="15" rx="1"/>
    <rect class="bit0" x="619" y="156" width="4" height="15" rx="1"/>
    <rect class="bit0" x="624" y="156" width="4" height="15" rx="1"/>
    <rect class="bit0" x="629" y="156" width="4" height="15" rx="1"/>
    <rect class="bit0" x="634" y="156" width="4" height="15" rx="1"/>
    <rect class="bit1" x="639" y="156" width="4" height="15" rx="1"/>
    <rect class="bit0" x="644" y="156" width="4" height="15" rx="1"/>
    <rect class="bit0" x="649" y="156" width="4" height="15" rx="1"/>
    <rect class="bit0" x="654" y="156" width="4" height="15" rx="1"/>
    <rect class="bit0" x="659" y="156" width="4" height="15" rx="1"/>
    <rect class="bit1" x="664" y="156" width="4" height="15" rx="1"/>
    <rect class="bit1" x="669" y="156" width="4" height="15" rx="1"/>
    <rect class="bit0" x="674" y="156" width="4" height="15" rx="1"/>
    <rect class="bit0" x="679" y="156" width="4" height="15" rx="1"/>
    <rect class="bit1" x="684" y="156" width="4" height="15" rx="1"/>
    <rect class="bit0" x="689" y="156" width="4" height="15" rx="1"/>
  <text class="ink2" x="710" y="168" font-size="12" font-weight="400">identical</text>
  <text class="ink2" x="132" y="220" font-size="12" text-anchor="end">press</text>
  <rect class="cellhot" x="146" y="208" width="9" height="15" rx="1.5"/>
    <rect class="cell" x="156" y="208" width="9" height="15" rx="1.5"/>
    <rect class="cell" x="166" y="208" width="9" height="15" rx="1.5"/>
    <rect class="cell" x="176" y="208" width="9" height="15" rx="1.5"/>
    <rect class="cell" x="186" y="208" width="9" height="15" rx="1.5"/>
    <rect class="cell" x="196" y="208" width="9" height="15" rx="1.5"/>
    <rect class="cell" x="206" y="208" width="9" height="15" rx="1.5"/>
    <rect class="cell" x="216" y="208" width="9" height="15" rx="1.5"/>
    <rect class="bit1" x="235" y="208" width="4" height="15" rx="1"/>
    <rect class="bit0" x="240" y="208" width="4" height="15" rx="1"/>
    <rect class="bit1" x="245" y="208" width="4" height="15" rx="1"/>
    <rect class="bit0" x="250" y="208" width="4" height="15" rx="1"/>
    <rect class="bit0" x="255" y="208" width="4" height="15" rx="1"/>
    <rect class="bit0" x="260" y="208" width="4" height="15" rx="1"/>
    <rect class="bit1" x="265" y="208" width="4" height="15" rx="1"/>
    <rect class="bit0" x="270" y="208" width="4" height="15" rx="1"/>
    <rect class="bit0" x="275" y="208" width="4" height="15" rx="1"/>
    <rect class="bit0" x="280" y="208" width="4" height="15" rx="1"/>
    <rect class="bit0" x="285" y="208" width="4" height="15" rx="1"/>
    <rect class="bit1" x="290" y="208" width="4" height="15" rx="1"/>
    <rect class="bit1" x="295" y="208" width="4" height="15" rx="1"/>
    <rect class="bit0" x="300" y="208" width="4" height="15" rx="1"/>
    <rect class="bit0" x="305" y="208" width="4" height="15" rx="1"/>
    <rect class="bit0" x="310" y="208" width="4" height="15" rx="1"/>
    <rect class="bit1" x="315" y="208" width="4" height="15" rx="1"/>
    <rect class="bit0" x="320" y="208" width="4" height="15" rx="1"/>
    <rect class="bit0" x="325" y="208" width="4" height="15" rx="1"/>
    <rect class="bit0" x="330" y="208" width="4" height="15" rx="1"/>
    <rect class="bit0" x="335" y="208" width="4" height="15" rx="1"/>
    <rect class="bit1" x="340" y="208" width="4" height="15" rx="1"/>
    <rect class="bit0" x="345" y="208" width="4" height="15" rx="1"/>
    <rect class="bit0" x="350" y="208" width="4" height="15" rx="1"/>
    <rect class="bit0" x="355" y="208" width="4" height="15" rx="1"/>
    <rect class="bit0" x="360" y="208" width="4" height="15" rx="1"/>
    <rect class="bit1" x="365" y="208" width="4" height="15" rx="1"/>
    <rect class="bit1" x="370" y="208" width="4" height="15" rx="1"/>
    <rect class="bit0" x="375" y="208" width="4" height="15" rx="1"/>
    <rect class="bit0" x="380" y="208" width="4" height="15" rx="1"/>
    <rect class="bit1" x="385" y="208" width="4" height="15" rx="1"/>
    <rect class="bit0" x="390" y="208" width="4" height="15" rx="1"/>
  <path class="arrow" d="M409 215.5 h22" stroke-width="1.5"/>
  <path class="arrow" d="M426 211.5 l4 4 l-4 4" stroke-width="1.5"/>
  <rect class="cellhot" x="445" y="208" width="9" height="15" rx="1.5"/>
    <rect class="cell" x="455" y="208" width="9" height="15" rx="1.5"/>
    <rect class="cell" x="465" y="208" width="9" height="15" rx="1.5"/>
    <rect class="cell" x="475" y="208" width="9" height="15" rx="1.5"/>
    <rect class="cell" x="485" y="208" width="9" height="15" rx="1.5"/>
    <rect class="cell" x="495" y="208" width="9" height="15" rx="1.5"/>
    <rect class="cell" x="505" y="208" width="9" height="15" rx="1.5"/>
    <rect class="cell" x="515" y="208" width="9" height="15" rx="1.5"/>
    <rect class="bit0" x="534" y="208" width="4" height="15" rx="1"/>
    <rect class="bit0" x="539" y="208" width="4" height="15" rx="1"/>
    <rect class="bit1" x="544" y="208" width="4" height="15" rx="1"/>
    <rect class="bit0" x="549" y="208" width="4" height="15" rx="1"/>
    <rect class="bit0" x="554" y="208" width="4" height="15" rx="1"/>
    <rect class="bit0" x="559" y="208" width="4" height="15" rx="1"/>
    <rect class="bit0" x="564" y="208" width="4" height="15" rx="1"/>
    <rect class="bit1" x="569" y="208" width="4" height="15" rx="1"/>
    <rect class="bit1" x="574" y="208" width="4" height="15" rx="1"/>
    <rect class="bit1" x="579" y="208" width="4" height="15" rx="1"/>
    <rect class="bit1" x="584" y="208" width="4" height="15" rx="1"/>
    <rect class="bit1" x="589" y="208" width="4" height="15" rx="1"/>
    <rect class="bit1" x="594" y="208" width="4" height="15" rx="1"/>
    <rect class="bit1" x="599" y="208" width="4" height="15" rx="1"/>
    <rect class="bit0" x="604" y="208" width="4" height="15" rx="1"/>
    <rect class="bit0" x="609" y="208" width="4" height="15" rx="1"/>
    <rect class="bit0" x="614" y="208" width="4" height="15" rx="1"/>
    <rect class="bit0" x="619" y="208" width="4" height="15" rx="1"/>
    <rect class="bit1" x="624" y="208" width="4" height="15" rx="1"/>
    <rect class="bit1" x="629" y="208" width="4" height="15" rx="1"/>
    <rect class="bit1" x="634" y="208" width="4" height="15" rx="1"/>
    <rect class="bit1" x="639" y="208" width="4" height="15" rx="1"/>
    <rect class="bit1" x="644" y="208" width="4" height="15" rx="1"/>
    <rect class="bit0" x="649" y="208" width="4" height="15" rx="1"/>
    <rect class="bit0" x="654" y="208" width="4" height="15" rx="1"/>
    <rect class="bit1" x="659" y="208" width="4" height="15" rx="1"/>
    <rect class="bit0" x="664" y="208" width="4" height="15" rx="1"/>
    <rect class="bit1" x="669" y="208" width="4" height="15" rx="1"/>
    <rect class="bit0" x="674" y="208" width="4" height="15" rx="1"/>
    <rect class="bit1" x="679" y="208" width="4" height="15" rx="1"/>
    <rect class="bit1" x="684" y="208" width="4" height="15" rx="1"/>
    <rect class="bit0" x="689" y="208" width="4" height="15" rx="1"/>
  <text class="s2" x="710" y="220" font-size="12" font-weight="600">TV differs</text>
  <text class="ink2" x="24" y="252" font-size="11.5">one_hot(position, 8) ++ 32 TV bits. Only the last row carries any signal about which action was taken.</text>
</svg>
